# xmcd
# 
# Track frame offsets:
#     150
#     18217
#     35249
#     54283
#     78905
#     102945
#     122919
#     140386
# 
# Disc length: 2265
# 
# Revision: 0
# Processed by: cddbd v1.5.2PL0 Copyright (c) Steve Scherf et al.
# Submitted via: BonkEnc v1.0
# 
DISCID=6108d708
DTITLE=Janis Joplin - I Got Dem Ol' Kozmic Blues Again Mama!
DYEAR=1969
DGENRE=Blues
TTITLE0=Try (Just a Little Bit Harder)
TTITLE1=Maybe
TTITLE2=One Good Man
TTITLE3=As Good As You've Been to this World
TTITLE4=To Love Somebody
TTITLE5=Kozmic Blues
TTITLE6=Little Girl Blue
TTITLE7=Work Me, Lord!
EXTD=YEAR: 1969 ID3G: 0
EXTT0=
EXTT1=
EXTT2=
EXTT3=
EXTT4=
EXTT5=
EXTT6=
EXTT7=
PLAYORDER=
